<svg data-v-0dd9719b="" version="1.0" xmlns="http://www.w3.org/2000/svg" xmlns:xlink="http://www.w3.org/1999/xlink" width="100%" height="100%" viewBox="0 0 340.000000 250.000000" preserveAspectRatio="xMidYMid meet" color-interpolation-filters="sRGB" style="margin: auto;"> <rect data-v-0dd9719b="" x="0" y="0" width="100%" height="100%" fill="#ffffff" fill-opacity="1" class="background"></rect> <rect data-v-0dd9719b="" x="0" y="0" width="100%" height="100%" fill="url(#watermark)" fill-opacity="1" class="watermarklayer"></rect> <g data-v-0dd9719b="" fill="#ed632b" class="icon-text-wrapper icon-svg-group iconsvg" transform="translate(48.54499816894531,90.60264205932617)"><g class="iconsvg-imagesvg" transform="translate(0,0)"><g><rect fill="#ed632b" fill-opacity="0" stroke-width="2" x="0" y="0" width="60" height="68.79471656576774" class="image-rect"></rect> <svg filter="url(#colors3550772050)" x="0" y="0" width="60" height="68.79471656576774" filtersec="colorsf349318740" class="image-svg-svg primary" style="overflow: visible;"><svg xmlns="http://www.w3.org/2000/svg" viewBox="12.22599983215332 -0.000054836273193359375 166.8040008544922 191.25405883789062"><path d="M162.929 66.612a6 6 0 1 0-6.35 10.183c6.544 4.081 10.45 11.121 10.45 18.833s-3.906 14.752-10.45 18.833l-98.417 61.365c-6.943 4.329-15.359 4.542-22.512.573-7.154-3.97-11.425-11.225-11.425-19.406V34.262c0-8.181 4.271-15.436 11.425-19.406 7.153-3.969 15.569-3.756 22.512.573l57.292 35.723a6 6 0 1 0 6.35-10.183L64.512 5.247c-10.696-6.669-23.661-7-34.685-.883-11.021 6.116-17.601 17.293-17.601 29.898v122.73c0 12.605 6.58 23.782 17.602 29.898 5.25 2.913 10.939 4.364 16.616 4.364 6.241 0 12.467-1.754 18.068-5.247l98.417-61.365c10.082-6.287 16.101-17.133 16.101-29.015s-6.019-22.728-16.101-29.015z" fill="#000000"></path></svg></svg> <defs><filter id="colors3550772050"><feColorMatrix type="matrix" values="0 0 0 0 0.92578125  0 0 0 0 0.38671875  0 0 0 0 0.16796875  0 0 0 1 0" class="icon-fecolormatrix"></feColorMatrix></filter> <filter id="colorsf349318740"><feColorMatrix type="matrix" values="0 0 0 0 0.99609375  0 0 0 0 0.99609375  0 0 0 0 0.99609375  0 0 0 1 0" class="icon-fecolormatrix"></feColorMatrix></filter> <filter id="colorsb5580093696"><feColorMatrix type="matrix" values="0 0 0 0 0  0 0 0 0 0  0 0 0 0 0  0 0 0 1 0" class="icon-fecolormatrix"></feColorMatrix></filter></defs></g></g> <g transform="translate(67,5.8861083984375)"><g data-gra="path-name" fill-rule="" class="tp-name iconsvg-namesvg" transform="translate(0,0)"><g transform="scale(1)"><g><path d="M39.02-8.01C38.66-6.88 38.25-5.67 37.93-4.95 37.26-3.38 36.9-3.1 36.18-3.1 35.5-3.1 34.52-3.55 33.75-5.76 33.75-5.8 33.75-5.8 33.7-5.85 36.9-10.3 39.38-15.16 41.4-20.61L35.19-23.36C34.24-20.34 33.03-17.55 31.54-14.89 31.05-17.59 30.78-20.65 30.46-24.43L42.16-24.43 42.16-31.41 39.51-31.41C39.1-32.8 38.74-34.11 38.07-35.73L31.86-35.23 33.21-31.41 29.92-31.41 29.52-36.54 22.54-36.72 22.95-31.41 5-31.41 5-19.71C5-6.93 3.82-3.51 0.94 2.25L8.23 5.35C9.54 2.11 10.48-0.9 11.16-4.68L13.41 2.7 16.11 2.38C18.04 2.16 19.35 1.71 20.38 0.85L23.94 4.68C25.7 3.28 27.22 1.84 28.71 0.27 30.82 4.05 33.3 5.22 36.13 5.22 39.02 5.22 40.73 3.51 42.61-0.9 43.34-2.48 43.52-3.24 44.01-4.59ZM22.18-3.28C22.23-3.6 22.27-3.87 22.27-4.23 22.45-8.96 22.54-14.98 22.68-20.61L12.15-20.61 12.15-24.43 23.49-24.43C24.16-17.01 25.06-11.38 26.1-7.2 24.93-5.85 23.63-4.54 22.18-3.28ZM15.43-7.25C15.3-5.4 14.85-5.13 12.87-4.91L11.21-4.72C11.61-7.29 11.92-10.17 12.06-13.77L15.52-13.77ZM83.47-17.59C84.6-21.02 85.5-24.34 86.26-27.77L86.26-35.46 69.7-35.46 69.7-31.9 64.98-34.29C64.22-32.09 63.36-30.11 62.41-28.35L62.41-33.21 59.49-33.21 59.49-36.49 52.74-36.67 52.74-33.21 48.24-33.21 48.24-27.77 52.74-27.77 52.74-24.34 46.93-24.34 46.93-18.5 53.37-18.5C51.07-16.92 48.42-15.39 45.18-13.81L46.66-6.79C47.43-7.29 48.2-7.65 48.91-8.05L48.91 4.05 67.14 4.05 67.14-16.11 60.39-16.11C61.24-16.88 61.96-17.64 62.68-18.5L68.31-18.5 68.31-24.34 66.82-24.34C67.86-26.1 68.76-27.99 69.7-30.11L69.7 5.13 76.14 5.13 76.14-28.62 79.88-28.62C79.11-24.48 78.12-20.38 77-16.25 79.11-13.23 79.83-10.48 79.88-8.73 79.88-6.43 79.02-5.85 77.53-5.67L76.45-5.54 79.29 1.67 80.5 1.44C85.77 0.49 86.89-0.77 86.89-6.88 86.89-10.13 86.22-13.09 83.47-17.59ZM58.9-24.34L58.9-27.77 62.1-27.77C61.38-26.55 60.61-25.38 59.76-24.34ZM60.8-8.64L55.35-8.64 55.35-11.34 60.8-11.34ZM55.35-1.4L55.35-4 60.8-4 60.8-1.4ZM131.04-27.58L122.85-27.58 123.88-29.65 129.06-29.65 129.06-34.56 115.69-34.56C115.51-35.28 115.29-36.05 115.06-36.72L106.47-36.72 107.14-34.56 93.64-34.56 93.64-29.65 99.18-29.65 99.85-27.58 91.62-27.58 91.62-22.68 131.04-22.68ZM115.88-29.65L114.97-27.58 107.64-27.58 106.96-29.65ZM132.07 0.36C130.95-1.62 128.75-5 127.22-7.38L127.75-7.38 127.75-21.55 94.86-21.55 94.86-7.38 95.13-7.38C94.05-5.13 91.62-1.03 90.18 0.99L96.34 4.23C97.78 2.07 100.21-2.92 101.29-5.31L96.43-7.38 109.03-7.38 108.22-6.79C109.26-5.49 111.64-2.11 112.5-0.77L116.55-3.92C116.5-3.51 116.46-3.06 116.32-2.48 116.1-1.08 115.69-0.67 113.94-0.54 112.99-0.49 111.46-0.45 110.2-0.58 108.81-0.63 108.36-1.17 108.36-3.28L108.36-6.25 101.52-6.39 101.52-0.72C101.52 3.24 103.32 4.5 107.55 4.63 109.94 4.77 112.63 4.77 115.02 4.63 120.1 4.5 121.5 4 122.44 0.18 122.63-0.54 122.67-1.4 122.8-2.16L116.95-4.23 117.49-4.63C117.09-5.31 116.23-6.3 115.38-7.38L124.11-7.38 120.96-5.58C122.53-3.19 125.19 1.26 126.41 3.82ZM120.73-17.5L120.73-16.11 101.92-16.11 101.92-17.5ZM101.92-11.29L101.92-12.73 120.73-12.73 120.73-11.29ZM176.85-1.98C171.04-3.38 165.96-5.08 162-7.38L175.36-7.38 175.36-13.63 159.48-13.63 159.48-15.79 172.75-15.79 172.75-35.32 139.23-35.32 139.23-15.79 152.46-15.79 152.46-13.63 136.62-13.63 136.62-7.38 149.94-7.38C145.84-4.91 141.16-3.46 134.91-1.98L138.33 4.63C143.32 2.88 148.32 0.77 152.46-1.89L152.46 5.13 159.48 5.13 159.48-2.16C163.75 0.67 168.7 2.79 173.56 4.54ZM152.46-29.16L152.46-27.18 146.25-27.18 146.25-29.16ZM165.69-27.18L159.48-27.18 159.48-29.16 165.69-29.16ZM146.25-21.46L146.25-23.27 152.46-23.27 152.46-21.46ZM159.48-21.46L159.48-23.27 165.69-23.27 165.69-21.46Z" transform="translate(-0.940000057220459, 36.720001220703125)"></path></g> <!----> <!----> <!----> <!----> <!----> <!----> <!----></g></g> <g data-gra="path-slogan" fill-rule="" class="tp-slogan iconsvg-slogansvg" fill="#ed632b" transform="translate(5,48.06999969482422)"><rect x="0" height="1" y="3.9750003814697266" width="29.28499984741211"></rect> <rect height="1" y="3.9750003814697266" width="29.28499984741211" x="136.62500381469727"></rect> <g transform="translate(32.28499984741211,0)"><g transform="scale(1)"><path d="M8.06-6.05L8.06-6.05L6.94-6.05Q6.52-7.78 4.55-7.83L4.55-7.83Q1.83-7.69 1.73-4.36L1.73-4.36Q1.73-0.80 4.59-0.80L4.59-0.80Q6.56-0.84 7.03-3.19L7.03-3.19L8.16-3.19Q7.64 0.05 4.36 0.14L4.36 0.14Q0.61 0 0.52-4.31L0.52-4.31Q0.70-8.63 4.55-8.81L4.55-8.81Q7.59-8.72 8.06-6.05ZM10.69-5.06L15.19-5.06L15.19-8.58L16.36-8.58L16.36 0L15.19 0L15.19-3.98L10.69-3.98L10.69 0L9.52 0L9.52-8.58L10.69-8.58L10.69-5.06ZM19.45-1.03L24.61-1.03L24.61 0L18.28 0L18.28-8.58L24.52-8.58L24.52-7.59L19.45-7.59L19.45-4.92L24.14-4.92L24.14-3.89L19.45-3.89L19.45-1.03ZM27.52-8.58L31.83-1.64L31.83-8.58L32.95-8.58L32.95 0L31.64 0L27.28-6.94L27.23-6.94L27.23 0L26.11 0L26.11-8.58L27.52-8.58ZM41.16-3.61L38.53-3.61L38.53-4.59L42.28-4.59L42.28 0L41.53 0L41.25-1.08Q40.27 0.09 38.44 0.14L38.44 0.14Q36.70 0.14 35.77-0.75L35.77-0.75Q34.36-2.06 34.41-4.36L34.41-4.36Q34.73-8.63 38.48-8.81L38.48-8.81Q41.67-8.63 42.14-6L42.14-6L41.02-6Q40.55-7.78 38.44-7.83L38.44-7.83Q35.77-7.64 35.63-4.31L35.63-4.31Q35.63-0.75 38.48-0.75L38.48-0.75Q39.52-0.75 40.27-1.31L40.27-1.31Q41.20-2.06 41.16-3.61L41.16-3.61ZM47.58 0L44.11 0L44.11-8.58L47.63-8.58Q51.09-8.39 51.23-4.41L51.23-4.41Q51.05-0.09 47.58 0L47.58 0ZM47.44-7.64L45.28-7.64L45.28-0.98L47.53-0.98Q49.97-1.13 50.06-4.31L50.06-4.31Q50.02-7.55 47.44-7.64L47.44-7.64ZM58.36-3.19L58.36-8.58L59.53-8.58L59.53-3.05Q59.39 0.05 56.02 0.14L56.02 0.14Q52.88 0.05 52.73-2.86L52.73-2.86L52.73-8.58L53.91-8.58L53.91-3.19Q53.95-0.84 56.06-0.80L56.06-0.80Q58.36-0.84 58.36-3.19L58.36-3.19ZM71.58-8.58L68.34-3.47L68.34 0L67.17 0L67.17-3.47L63.94-8.58L65.30-8.58L67.73-4.45L70.22-8.58L71.58-8.58ZM72.80-8.58L73.97-8.58L73.97 0L72.80 0L72.80-8.58ZM82.36-3.61L79.73-3.61L79.73-4.59L83.48-4.59L83.48 0L82.73 0L82.45-1.08Q81.47 0.09 79.64 0.14L79.64 0.14Q77.91 0.14 76.97-0.75L76.97-0.75Q75.56-2.06 75.61-4.36L75.61-4.36Q75.94-8.63 79.69-8.81L79.69-8.81Q82.88-8.63 83.34-6L83.34-6L82.22-6Q81.75-7.78 79.64-7.83L79.64-7.83Q76.97-7.64 76.83-4.31L76.83-4.31Q76.83-0.75 79.69-0.75L79.69-0.75Q80.72-0.75 81.47-1.31L81.47-1.31Q82.41-2.06 82.36-3.61L82.36-3.61ZM90.94-3.19L90.94-8.58L92.11-8.58L92.11-3.05Q91.97 0.05 88.59 0.14L88.59 0.14Q85.45 0.05 85.31-2.86L85.31-2.86L85.31-8.58L86.48-8.58L86.48-3.19Q86.53-0.84 88.64-0.80L88.64-0.80Q90.94-0.84 90.94-3.19L90.94-3.19ZM100.69-4.27L100.69-4.27Q100.50-7.64 97.69-7.83L97.69-7.83Q94.83-7.69 94.69-4.27L94.69-4.27Q94.83-0.94 97.69-0.80L97.69-0.80Q100.50-0.98 100.69-4.27ZM101.86-4.27L101.86-4.27Q101.58 0 97.69 0.14L97.69 0.14Q93.75 0 93.47-4.27L93.47-4.27Q93.70-8.72 97.69-8.81L97.69-8.81Q101.58-8.67 101.86-4.27Z" transform="translate(-0.515625, 8.8125)"></path></g></g></g></g></g><defs v-gra="od"></defs></svg>